# xmcd
#
# Track frame offsets: 
#        150
#        48157
#        56754
#        80681
#        105012
#        127901
#        133217
#        185077
#        212939
#        243590
#        248957
#        271093
#        310333
#
# Disc length: 4532 seconds
#
# Revision: 0
# Processed by: cddbd v1.5.2PL0 Copyright (c) Steve Scherf et al.
# Submitted via: ExactAudioCopy v0.95a5
#
DISCID=ba11b20d
DTITLE=Eric Taylor - Startenzaal 't Hof
DYEAR=2006
DGENRE=Blues
TTITLE0=Brand New Companion> Dirty Dirty> Brand New Companion
TTITLE1=Radio Host
TTITLE2=Walking Back Home
TTITLE3=Big Love
TTITLE4=Where I Leave Me
TTITLE5=Radio Host
TTITLE6=Whorehouse Mirrors and Pawnshop Knives > Shoes
TTITLE7=Manhattan Mandolin Blues
TTITLE8=A Better Day
TTITLE9=Radio Host
TTITLE10=Two Fires
TTITLE11=Peppercorn Tree
TTITLE12=Ain't But One Thing Give A Man The Blues
EXTD=
EXTT0=
EXTT1=
EXTT2=
EXTT3=
EXTT4=
EXTT5=
EXTT6=
EXTT7=
EXTT8=
EXTT9=
EXTT10=
EXTT11=
EXTT12=
PLAYORDER=
